<?xml version="1.0" encoding="UTF-8" standalone="no"?>
<!DOCTYPE svg PUBLIC "-//W3C//DTD SVG 20010904//EN"
              "http://www.w3.org/TR/2001/REC-SVG-20010904/DTD/svg10.dtd">

<svg xmlns="http://www.w3.org/2000/svg"
     width="1.125in" height="1.125in"
     viewBox="0 0 81 81">
  <path id="Unnamed"
        fill="none" stroke="black" stroke-width="1"
        d="M 73,28
           C 73,28 64,42 64,42
             64,42 56,40 56,40
             56,40 45,55 45,55
             45,55 43,81 43,81
             43,81 39,81 39,81
             39,81 35,73 35,73
             35,73 37,57 37,57
             37,57 28,56 28,56
             28,56 18,44 18,44
             18,44 18,41 18,41
             18,41 29,41 29,41
             29,41 29,28 29,28
             29,28 48,24 48,24
             48,24 56,4 56,4
             56,4 73,28 73,28 Z" />
</svg>
