<?xml version="1.0" encoding="UTF-8" standalone="no"?>
<!DOCTYPE svg PUBLIC "-//W3C//DTD SVG 20010904//EN"
              "http://www.w3.org/TR/2001/REC-SVG-20010904/DTD/svg10.dtd">

<svg xmlns="http://www.w3.org/2000/svg"
     width="1.125in" height="1.125in"
     viewBox="0 0 81 81">
  <path id="Unnamed"
        fill="none" stroke="black" stroke-width="1"
        d="M 56.30,4.20
           C 56.30,4.20 47.50,23.50 47.50,23.50
             47.50,23.50 29.01,27.56 29.01,27.56
             29.01,27.56 29.11,41.06 29.11,41.06
             29.11,41.06 18.19,40.88 18.19,40.88
             18.19,40.88 17.75,44.38 17.75,44.38
             17.75,44.38 27.70,56.20 27.70,56.20
             27.70,56.20 36.88,57.06 36.88,57.06
             36.88,57.06 34.81,73.44 34.81,73.44
             34.81,73.44 38.56,80.94 38.56,80.94
             38.56,80.94 43.25,81.25 43.25,81.25
             43.25,81.25 45.19,54.88 45.19,54.88
             45.19,54.88 56.44,40.19 56.44,40.19
             56.44,40.19 64.44,42.38 64.44,42.38
             64.44,42.38 72.50,27.56 72.50,27.56" />
</svg>
